<svg xmlns="http://www.w3.org/2000/svg" xmlns:xlink="http://www.w3.org/1999/xlink" width="107" zoomAndPan="magnify" viewBox="0 0 80.25 40.499999" height="54" preserveAspectRatio="xMidYMid meet" version="1.0"><defs><g/><clipPath id="dc516aaf27"><path d="M 27.332031 0.742188 L 42 0.742188 L 42 19 L 27.332031 19 Z M 27.332031 0.742188 " clip-rule="nonzero"/></clipPath></defs><path fill="#80cc28" d="M 46.308594 18.375 C 49.550781 14.0625 45.757812 5.203125 45.757812 5.203125 C 45.757812 5.203125 43.117188 9.320312 40.222656 10.472656 C 38.289062 11.238281 33.222656 14.828125 38.507812 19.871094 C 38.5625 19.921875 38.621094 19.976562 38.683594 20.03125 C 41.238281 18.710938 46.167969 14.996094 45.671875 6.097656 C 45.671875 6.097656 47.433594 16.230469 39.023438 20.304688 C 40.613281 21.488281 43.417969 22.230469 46.308594 18.375 " fill-opacity="1" fill-rule="nonzero"/><g clip-path="url(#dc516aaf27)"><path fill="#27963c" d="M 37.394531 11.3125 C 36.148438 8.023438 33.523438 4.394531 28.242188 1.441406 C 28.242188 1.441406 35.21875 4.328125 37.9375 10.941406 C 38.355469 10.675781 38.746094 10.480469 39.058594 10.355469 C 39.953125 10 40.824219 9.359375 41.597656 8.644531 C 38.828125 2.570312 27.339844 0.742188 27.339844 0.742188 C 27.339844 0.742188 29.949219 6.382812 29.214844 10.28125 C 28.757812 12.722656 29.074219 19.796875 36.464844 18.824219 C 33.609375 15.386719 35.511719 12.722656 37.394531 11.3125 " fill-opacity="1" fill-rule="nonzero"/></g><g fill="#f5ab1e" fill-opacity="1"><g transform="translate(3.837765, 38.173844)"><g><path d="M 9.15625 -11.234375 C 9.53125 -11.035156 9.769531 -10.738281 9.875 -10.34375 C 9.65625 -9.113281 9.457031 -7.890625 9.28125 -6.671875 C 9.101562 -5.453125 8.929688 -4.429688 8.765625 -3.609375 C 8.597656 -2.785156 8.484375 -2.164062 8.421875 -1.75 C 8.359375 -1.34375 8.289062 -0.9375 8.21875 -0.53125 L 8.109375 -0.1875 C 8.085938 -0.0625 8.066406 0.0507812 8.046875 0.15625 C 8.023438 0.257812 8.003906 0.375 7.984375 0.5 C 7.671875 0.851562 7.25 1.03125 6.71875 1.03125 C 6.15625 1.03125 5.707031 0.882812 5.375 0.59375 C 5.175781 0.4375 5.144531 0.113281 5.28125 -0.375 C 5.332031 -0.570312 5.367188 -0.828125 5.390625 -1.140625 C 5.410156 -1.460938 5.429688 -1.726562 5.453125 -1.9375 L 5.453125 -1.96875 C 5.117188 -1.84375 4.816406 -1.679688 4.546875 -1.484375 C 4.285156 -1.296875 4.117188 -1.175781 4.046875 -1.125 C 3.984375 -1.082031 3.894531 -1.046875 3.78125 -1.015625 C 3.675781 -0.992188 3.582031 -0.972656 3.5 -0.953125 C 3.289062 -0.941406 3.144531 -0.910156 3.0625 -0.859375 C 2.425781 0.285156 1.851562 0.925781 1.34375 1.0625 C 1.019531 1.15625 0.695312 1.175781 0.375 1.125 C 0.0625 1.082031 -0.1875 0.894531 -0.375 0.5625 C -0.726562 0.226562 -0.640625 -0.675781 -0.109375 -2.15625 C 0.171875 -2.9375 0.578125 -3.875 1.109375 -4.96875 C 1.648438 -6.070312 2.171875 -7.03125 2.671875 -7.84375 C 3.734375 -9.601562 4.90625 -11.085938 6.1875 -12.296875 C 6.40625 -12.378906 6.632812 -12.476562 6.875 -12.59375 C 7.113281 -12.707031 7.351562 -12.769531 7.59375 -12.78125 C 7.832031 -12.789062 8.078125 -12.765625 8.328125 -12.703125 C 8.585938 -12.640625 8.804688 -12.539062 8.984375 -12.40625 C 9.390625 -12.09375 9.445312 -11.703125 9.15625 -11.234375 Z M 5.609375 -6.875 C 5.378906 -6.207031 5.148438 -5.59375 4.921875 -5.03125 C 4.691406 -4.476562 4.492188 -3.992188 4.328125 -3.578125 L 5.625 -3.625 C 5.71875 -4.332031 5.816406 -5.035156 5.921875 -5.734375 C 6.035156 -6.429688 6.144531 -7.125 6.25 -7.8125 Z M 5.171875 -3.5625 C 5.328125 -3.5625 5.476562 -3.570312 5.625 -3.59375 L 5.625 -3.609375 C 5.488281 -3.597656 5.359375 -3.585938 5.234375 -3.578125 C 5.109375 -3.566406 5.085938 -3.5625 5.171875 -3.5625 Z M 5.171875 -3.5625 "/></g></g><g transform="translate(13.18194, 38.173844)"><g><path d="M 1.125 -6.421875 C 1.34375 -7.160156 1.519531 -7.734375 1.65625 -8.140625 C 1.800781 -8.546875 1.9375 -8.90625 2.0625 -9.21875 C 2.195312 -9.539062 2.347656 -9.847656 2.515625 -10.140625 C 2.691406 -10.441406 2.878906 -10.71875 3.078125 -10.96875 C 3.285156 -11.21875 3.503906 -11.414062 3.734375 -11.5625 C 3.972656 -11.707031 4.21875 -11.78125 4.46875 -11.78125 C 4.726562 -11.78125 4.992188 -11.679688 5.265625 -11.484375 C 5.703125 -10.378906 5.972656 -9.640625 6.078125 -9.265625 C 6.210938 -8.710938 6.332031 -7.929688 6.4375 -6.921875 C 6.539062 -7.171875 6.65625 -7.4375 6.78125 -7.71875 C 6.90625 -8.007812 7.03125 -8.296875 7.15625 -8.578125 C 7.5 -9.304688 7.710938 -9.859375 7.796875 -10.234375 C 8.046875 -11.003906 8.550781 -11.582031 9.3125 -11.96875 C 9.96875 -12.300781 10.582031 -12.410156 11.15625 -12.296875 C 11.394531 -12.242188 11.5625 -12.144531 11.65625 -12 C 11.75 -11.863281 11.75 -11.71875 11.65625 -11.5625 C 11.5625 -11.40625 11.523438 -11.257812 11.546875 -11.125 C 11.578125 -10.988281 11.601562 -10.828125 11.625 -10.640625 C 11.65625 -10.128906 11.566406 -9.675781 11.359375 -9.28125 C 11.148438 -8.882812 10.9375 -8.394531 10.71875 -7.8125 C 10.5 -7.238281 10.273438 -6.625 10.046875 -5.96875 C 9.816406 -5.320312 9.585938 -4.660156 9.359375 -3.984375 C 9.128906 -3.316406 8.898438 -2.707031 8.671875 -2.15625 C 8.191406 -0.882812 7.796875 -0.179688 7.484375 -0.046875 C 7.066406 0.203125 6.757812 0.347656 6.5625 0.390625 C 6.300781 0.441406 5.941406 0.441406 5.484375 0.390625 C 5.191406 0.367188 4.941406 0 4.734375 -0.71875 C 4.609375 -1.101562 4.5 -1.632812 4.40625 -2.3125 C 4.226562 -3.507812 4.109375 -4.171875 4.046875 -4.296875 C 3.597656 -2.859375 3.28125 -1.953125 3.09375 -1.578125 C 2.914062 -1.203125 2.78125 -0.953125 2.6875 -0.828125 C 2.59375 -0.703125 2.484375 -0.539062 2.359375 -0.34375 C 2.210938 0.0507812 1.867188 0.34375 1.328125 0.53125 C 0.859375 0.707031 0.4375 0.734375 0.0625 0.609375 C -0.34375 0.472656 -0.460938 0.21875 -0.296875 -0.15625 C -0.171875 -1.476562 0.300781 -3.566406 1.125 -6.421875 Z M 1.125 -6.421875 "/></g></g><g transform="translate(23.619582, 38.173844)"><g><path d="M 7 -11.203125 C 6.613281 -9.992188 6.257812 -8.898438 5.9375 -7.921875 C 5.613281 -6.953125 5.316406 -6.0625 5.046875 -5.25 C 4.773438 -4.4375 4.519531 -3.679688 4.28125 -2.984375 C 4.050781 -2.296875 3.835938 -1.640625 3.640625 -1.015625 C 3.535156 -0.285156 3.175781 0.226562 2.5625 0.53125 C 2.207031 0.695312 1.785156 0.78125 1.296875 0.78125 C 0.816406 0.78125 0.453125 0.726562 0.203125 0.625 C -0.0351562 0.519531 -0.1875 0.367188 -0.25 0.171875 C -0.320312 -0.0234375 -0.320312 -0.265625 -0.25 -0.546875 C -0.1875 -0.835938 -0.0664062 -1.226562 0.109375 -1.71875 C 0.285156 -2.207031 0.507812 -2.867188 0.78125 -3.703125 C 1.050781 -4.546875 1.335938 -5.398438 1.640625 -6.265625 C 2.378906 -8.410156 2.960938 -9.898438 3.390625 -10.734375 C 3.554688 -11.046875 3.722656 -11.253906 3.890625 -11.359375 C 4.054688 -11.460938 4.21875 -11.535156 4.375 -11.578125 C 4.53125 -11.628906 4.671875 -11.6875 4.796875 -11.75 C 4.929688 -11.820312 5.050781 -11.988281 5.15625 -12.25 C 5.257812 -12.519531 5.453125 -12.703125 5.734375 -12.796875 C 6.015625 -12.898438 6.28125 -12.910156 6.53125 -12.828125 C 6.78125 -12.742188 6.96875 -12.566406 7.09375 -12.296875 C 7.21875 -12.023438 7.1875 -11.660156 7 -11.203125 Z M 7 -11.203125 "/></g></g><g transform="translate(29.699923, 38.173844)"><g><path d="M 2.75 0.953125 C 2.1875 0.984375 1.671875 0.914062 1.203125 0.75 C 0.734375 0.59375 0.351562 0.375 0.0625 0.09375 C -0.226562 -0.175781 -0.410156 -0.492188 -0.484375 -0.859375 C -0.566406 -1.234375 -0.503906 -1.613281 -0.296875 -2 C -0.015625 -2.46875 0.554688 -2.609375 1.421875 -2.421875 C 2.078125 -2.285156 2.523438 -2.210938 2.765625 -2.203125 C 3.015625 -2.191406 3.226562 -2.222656 3.40625 -2.296875 C 4.21875 -2.566406 4.671875 -2.851562 4.765625 -3.15625 C 4.835938 -3.394531 4.695312 -3.664062 4.34375 -3.96875 C 4.195312 -4.101562 4.035156 -4.238281 3.859375 -4.375 C 3.679688 -4.507812 3.53125 -4.640625 3.40625 -4.765625 C 2.851562 -5.171875 2.421875 -5.640625 2.109375 -6.171875 C 1.796875 -6.710938 1.664062 -7.296875 1.71875 -7.921875 C 1.78125 -8.554688 1.882812 -9.082031 2.03125 -9.5 C 2.1875 -9.914062 2.378906 -10.28125 2.609375 -10.59375 C 3.023438 -11.15625 3.554688 -11.613281 4.203125 -11.96875 C 4.953125 -12.351562 5.554688 -12.601562 6.015625 -12.71875 C 6.910156 -12.914062 7.816406 -12.929688 8.734375 -12.765625 C 9.035156 -12.710938 9.296875 -12.609375 9.515625 -12.453125 C 9.742188 -12.296875 9.96875 -12.132812 10.1875 -11.96875 C 10.570312 -11.582031 10.664062 -11.191406 10.46875 -10.796875 C 10.382812 -10.617188 10.257812 -10.472656 10.09375 -10.359375 C 9.9375 -10.253906 9.765625 -10.195312 9.578125 -10.1875 C 9.597656 -9.882812 9.539062 -9.660156 9.40625 -9.515625 C 9.15625 -9.265625 8.710938 -9.101562 8.078125 -9.03125 C 7.171875 -9.09375 6.5625 -9.039062 6.25 -8.875 C 5.875 -8.675781 5.734375 -8.242188 5.828125 -7.578125 C 5.847656 -7.441406 5.9375 -7.296875 6.09375 -7.140625 C 6.257812 -6.984375 6.445312 -6.816406 6.65625 -6.640625 C 6.875 -6.460938 7.101562 -6.265625 7.34375 -6.046875 C 7.582031 -5.828125 7.789062 -5.570312 7.96875 -5.28125 C 8.582031 -4.269531 8.53125 -3.082031 7.8125 -1.71875 C 7.28125 -0.707031 6.375 0.0507812 5.09375 0.5625 C 4.4375 0.820312 3.65625 0.953125 2.75 0.953125 Z M 2.75 0.953125 "/></g></g><g transform="translate(38.845286, 38.173844)"><g><path d="M 3.75 -2.09375 C 4.382812 -2.019531 4.859375 -1.984375 5.171875 -1.984375 C 5.484375 -1.984375 5.960938 -2.03125 6.609375 -2.125 C 6.804688 -2.050781 6.921875 -1.960938 6.953125 -1.859375 C 6.984375 -1.765625 6.992188 -1.664062 6.984375 -1.5625 C 6.972656 -1.457031 6.976562 -1.351562 7 -1.25 C 7.019531 -1.15625 7.128906 -1.078125 7.328125 -1.015625 C 7.421875 -0.972656 7.445312 -0.875 7.40625 -0.71875 C 7.375 -0.5625 7.285156 -0.390625 7.140625 -0.203125 C 6.773438 0.273438 6.34375 0.609375 5.84375 0.796875 C 5.050781 0.992188 4.425781 1.109375 3.96875 1.140625 C 3.21875 1.191406 2.40625 1.164062 1.53125 1.0625 C 0.550781 0.882812 0.078125 0.476562 0.109375 -0.15625 C 0.109375 -2.46875 0.617188 -4.796875 1.640625 -7.140625 C 1.972656 -7.898438 2.347656 -8.703125 2.765625 -9.546875 C 2.847656 -9.722656 2.898438 -9.921875 2.921875 -10.140625 C 2.941406 -10.359375 2.957031 -10.570312 2.96875 -10.78125 C 2.976562 -10.988281 3.007812 -11.175781 3.0625 -11.34375 C 3.113281 -11.507812 3.226562 -11.625 3.40625 -11.6875 C 5.707031 -12.601562 7.523438 -12.957031 8.859375 -12.75 C 9.328125 -12.738281 9.632812 -12.582031 9.78125 -12.28125 C 9.925781 -11.976562 9.941406 -11.640625 9.828125 -11.265625 C 9.710938 -10.890625 9.484375 -10.535156 9.140625 -10.203125 C 8.804688 -9.867188 8.390625 -9.664062 7.890625 -9.59375 C 7.234375 -9.40625 6.832031 -9.273438 6.6875 -9.203125 C 6.414062 -9.078125 6.21875 -8.898438 6.09375 -8.671875 C 5.9375 -8.429688 5.789062 -8.203125 5.65625 -7.984375 C 5.53125 -7.765625 5.4375 -7.523438 5.375 -7.265625 L 5.3125 -6.90625 C 5.519531 -6.800781 5.773438 -6.769531 6.078125 -6.8125 C 6.390625 -6.851562 6.675781 -6.890625 6.9375 -6.921875 C 7.195312 -6.960938 7.40625 -6.96875 7.5625 -6.9375 C 7.71875 -6.90625 7.75 -6.742188 7.65625 -6.453125 C 7.5625 -6.160156 7.390625 -5.832031 7.140625 -5.46875 C 6.898438 -5.101562 6.550781 -4.835938 6.09375 -4.671875 C 5.8125 -4.617188 5.613281 -4.578125 5.5 -4.546875 C 5.394531 -4.515625 5.316406 -4.492188 5.265625 -4.484375 C 5.191406 -4.472656 4.972656 -4.457031 4.609375 -4.4375 C 4.085938 -3.550781 3.769531 -2.867188 3.65625 -2.390625 C 3.613281 -2.191406 3.644531 -2.09375 3.75 -2.09375 Z M 3.75 -2.09375 "/></g></g><g transform="translate(47.526753, 38.173844)"><g><path d="M 5.765625 -4.25 C 5.460938 -3.382812 5.15625 -2.550781 4.84375 -1.75 C 4.539062 -0.957031 4.285156 -0.359375 4.078125 0.046875 C 3.878906 0.460938 3.703125 0.75 3.546875 0.90625 C 3.390625 1.0625 3.226562 1.164062 3.0625 1.21875 C 2.90625 1.28125 2.75 1.304688 2.59375 1.296875 C 2.4375 1.285156 2.273438 1.273438 2.109375 1.265625 C 1.179688 1.117188 0.890625 0.445312 1.234375 -0.75 C 1.472656 -1.695312 1.660156 -2.46875 1.796875 -3.0625 C 1.941406 -3.664062 2.0625 -4.164062 2.15625 -4.5625 C 2.25 -4.957031 2.328125 -5.28125 2.390625 -5.53125 C 2.460938 -5.789062 2.535156 -6.046875 2.609375 -6.296875 C 2.691406 -6.554688 2.789062 -6.847656 2.90625 -7.171875 C 3.019531 -7.492188 3.171875 -7.921875 3.359375 -8.453125 C 2.941406 -8.390625 2.566406 -8.429688 2.234375 -8.578125 C 1.742188 -8.785156 1.546875 -9.238281 1.640625 -9.9375 C 1.679688 -10.257812 1.851562 -10.554688 2.15625 -10.828125 C 2.3125 -10.972656 2.492188 -11.128906 2.703125 -11.296875 C 3.128906 -11.640625 3.984375 -12.003906 5.265625 -12.390625 C 6.585938 -12.785156 7.722656 -12.972656 8.671875 -12.953125 C 8.929688 -12.992188 9.195312 -12.960938 9.46875 -12.859375 C 9.738281 -12.753906 9.957031 -12.613281 10.125 -12.4375 C 10.289062 -12.257812 10.375 -12.066406 10.375 -11.859375 C 10.382812 -11.648438 10.25 -11.460938 9.96875 -11.296875 C 9.832031 -11.203125 9.738281 -11.050781 9.6875 -10.84375 C 9.632812 -10.644531 9.570312 -10.429688 9.5 -10.203125 C 9.4375 -9.984375 9.34375 -9.78125 9.21875 -9.59375 C 9.09375 -9.40625 8.890625 -9.296875 8.609375 -9.265625 C 8.460938 -9.179688 8.257812 -9.125 8 -9.09375 C 7.75 -9.0625 7.582031 -9.035156 7.5 -9.015625 C 7.414062 -9.003906 7.367188 -8.972656 7.359375 -8.921875 C 7.160156 -8.335938 6.921875 -7.628906 6.640625 -6.796875 C 6.367188 -5.960938 6.078125 -5.113281 5.765625 -4.25 Z M 3.53125 -8.625 C 3.507812 -8.625 3.5 -8.617188 3.5 -8.609375 C 3.5 -8.609375 3.507812 -8.609375 3.53125 -8.609375 Z M 3.53125 -8.625 "/></g></g><g transform="translate(55.843732, 38.173844)"><g><path d="M 5.765625 -4.25 C 5.460938 -3.382812 5.15625 -2.550781 4.84375 -1.75 C 4.539062 -0.957031 4.285156 -0.359375 4.078125 0.046875 C 3.878906 0.460938 3.703125 0.75 3.546875 0.90625 C 3.390625 1.0625 3.226562 1.164062 3.0625 1.21875 C 2.90625 1.28125 2.75 1.304688 2.59375 1.296875 C 2.4375 1.285156 2.273438 1.273438 2.109375 1.265625 C 1.179688 1.117188 0.890625 0.445312 1.234375 -0.75 C 1.472656 -1.695312 1.660156 -2.46875 1.796875 -3.0625 C 1.941406 -3.664062 2.0625 -4.164062 2.15625 -4.5625 C 2.25 -4.957031 2.328125 -5.28125 2.390625 -5.53125 C 2.460938 -5.789062 2.535156 -6.046875 2.609375 -6.296875 C 2.691406 -6.554688 2.789062 -6.847656 2.90625 -7.171875 C 3.019531 -7.492188 3.171875 -7.921875 3.359375 -8.453125 C 2.941406 -8.390625 2.566406 -8.429688 2.234375 -8.578125 C 1.742188 -8.785156 1.546875 -9.238281 1.640625 -9.9375 C 1.679688 -10.257812 1.851562 -10.554688 2.15625 -10.828125 C 2.3125 -10.972656 2.492188 -11.128906 2.703125 -11.296875 C 3.128906 -11.640625 3.984375 -12.003906 5.265625 -12.390625 C 6.585938 -12.785156 7.722656 -12.972656 8.671875 -12.953125 C 8.929688 -12.992188 9.195312 -12.960938 9.46875 -12.859375 C 9.738281 -12.753906 9.957031 -12.613281 10.125 -12.4375 C 10.289062 -12.257812 10.375 -12.066406 10.375 -11.859375 C 10.382812 -11.648438 10.25 -11.460938 9.96875 -11.296875 C 9.832031 -11.203125 9.738281 -11.050781 9.6875 -10.84375 C 9.632812 -10.644531 9.570312 -10.429688 9.5 -10.203125 C 9.4375 -9.984375 9.34375 -9.78125 9.21875 -9.59375 C 9.09375 -9.40625 8.890625 -9.296875 8.609375 -9.265625 C 8.460938 -9.179688 8.257812 -9.125 8 -9.09375 C 7.75 -9.0625 7.582031 -9.035156 7.5 -9.015625 C 7.414062 -9.003906 7.367188 -8.972656 7.359375 -8.921875 C 7.160156 -8.335938 6.921875 -7.628906 6.640625 -6.796875 C 6.367188 -5.960938 6.078125 -5.113281 5.765625 -4.25 Z M 3.53125 -8.625 C 3.507812 -8.625 3.5 -8.617188 3.5 -8.609375 C 3.5 -8.609375 3.507812 -8.609375 3.53125 -8.609375 Z M 3.53125 -8.625 "/></g></g><g transform="translate(64.16071, 38.173844)"><g><path d="M 3.75 -2.09375 C 4.382812 -2.019531 4.859375 -1.984375 5.171875 -1.984375 C 5.484375 -1.984375 5.960938 -2.03125 6.609375 -2.125 C 6.804688 -2.050781 6.921875 -1.960938 6.953125 -1.859375 C 6.984375 -1.765625 6.992188 -1.664062 6.984375 -1.5625 C 6.972656 -1.457031 6.976562 -1.351562 7 -1.25 C 7.019531 -1.15625 7.128906 -1.078125 7.328125 -1.015625 C 7.421875 -0.972656 7.445312 -0.875 7.40625 -0.71875 C 7.375 -0.5625 7.285156 -0.390625 7.140625 -0.203125 C 6.773438 0.273438 6.34375 0.609375 5.84375 0.796875 C 5.050781 0.992188 4.425781 1.109375 3.96875 1.140625 C 3.21875 1.191406 2.40625 1.164062 1.53125 1.0625 C 0.550781 0.882812 0.078125 0.476562 0.109375 -0.15625 C 0.109375 -2.46875 0.617188 -4.796875 1.640625 -7.140625 C 1.972656 -7.898438 2.347656 -8.703125 2.765625 -9.546875 C 2.847656 -9.722656 2.898438 -9.921875 2.921875 -10.140625 C 2.941406 -10.359375 2.957031 -10.570312 2.96875 -10.78125 C 2.976562 -10.988281 3.007812 -11.175781 3.0625 -11.34375 C 3.113281 -11.507812 3.226562 -11.625 3.40625 -11.6875 C 5.707031 -12.601562 7.523438 -12.957031 8.859375 -12.75 C 9.328125 -12.738281 9.632812 -12.582031 9.78125 -12.28125 C 9.925781 -11.976562 9.941406 -11.640625 9.828125 -11.265625 C 9.710938 -10.890625 9.484375 -10.535156 9.140625 -10.203125 C 8.804688 -9.867188 8.390625 -9.664062 7.890625 -9.59375 C 7.234375 -9.40625 6.832031 -9.273438 6.6875 -9.203125 C 6.414062 -9.078125 6.21875 -8.898438 6.09375 -8.671875 C 5.9375 -8.429688 5.789062 -8.203125 5.65625 -7.984375 C 5.53125 -7.765625 5.4375 -7.523438 5.375 -7.265625 L 5.3125 -6.90625 C 5.519531 -6.800781 5.773438 -6.769531 6.078125 -6.8125 C 6.390625 -6.851562 6.675781 -6.890625 6.9375 -6.921875 C 7.195312 -6.960938 7.40625 -6.96875 7.5625 -6.9375 C 7.71875 -6.90625 7.75 -6.742188 7.65625 -6.453125 C 7.5625 -6.160156 7.390625 -5.832031 7.140625 -5.46875 C 6.898438 -5.101562 6.550781 -4.835938 6.09375 -4.671875 C 5.8125 -4.617188 5.613281 -4.578125 5.5 -4.546875 C 5.394531 -4.515625 5.316406 -4.492188 5.265625 -4.484375 C 5.191406 -4.472656 4.972656 -4.457031 4.609375 -4.4375 C 4.085938 -3.550781 3.769531 -2.867188 3.65625 -2.390625 C 3.613281 -2.191406 3.644531 -2.09375 3.75 -2.09375 Z M 3.75 -2.09375 "/></g></g></g></svg>