<svg xmlns="http://www.w3.org/2000/svg" xmlns:xlink="http://www.w3.org/1999/xlink" width="500" zoomAndPan="magnify" viewBox="0 0 375 374.999991" height="500" preserveAspectRatio="xMidYMid meet" version="1.0"><defs><clipPath id="d06b16f89d"><path d="M 37.5 37.550781 L 238 37.550781 L 238 292 L 37.5 292 Z M 37.5 37.550781 " clip-rule="nonzero"/></clipPath></defs><path fill="#80cc28" d="M 303.867188 283.792969 C 349.335938 223.554688 296.085938 99.832031 296.085938 99.832031 C 296.085938 99.832031 259.066406 157.34375 218.460938 173.414062 C 191.328125 184.140625 120.238281 234.265625 194.351562 304.652344 C 195.140625 305.40625 195.976562 306.164062 196.847656 306.90625 C 232.703125 288.476562 301.875 236.578125 294.917969 112.375 C 294.917969 112.375 319.632812 253.835938 201.609375 310.71875 C 223.941406 327.234375 263.257812 337.601562 303.867188 283.792969 " fill-opacity="1" fill-rule="nonzero"/><g clip-path="url(#d06b16f89d)"><path fill="#27963c" d="M 178.765625 185.1875 C 161.253906 139.226562 124.429688 88.570312 50.324219 47.347656 C 50.324219 47.347656 148.203125 87.652344 186.359375 179.980469 C 192.222656 176.289062 197.730469 173.53125 202.105469 171.804688 C 214.664062 166.832031 226.867188 157.902344 237.753906 147.929688 C 198.882812 63.109375 37.667969 37.585938 37.667969 37.585938 C 37.667969 37.585938 74.261719 116.3125 63.976562 170.789062 C 57.539062 204.84375 62.019531 303.644531 165.71875 290.050781 C 125.617188 242.070312 152.339844 204.859375 178.765625 185.1875 " fill-opacity="1" fill-rule="nonzero"/></g></svg>